<svg width="904" height="315" viewBox="0 0 904 315" fill="none" xmlns="http://www.w3.org/2000/svg">
<path d="M108.123 3.31876V36.1679L37.9437 204.436H108.123V237.956H0V205.106L70.1791 36.8383H3.35785V3.31876H108.123Z" fill="#FF5722"/>
<path d="M166.925 237.956H129.988V3.31876H166.925V103.877H208.898V3.31876H246.506V237.956H208.898V137.397H166.925V237.956Z" fill="#FF5722"/>
<path d="M307.202 183.989C307.202 192.481 308.88 198.514 312.238 202.09C315.82 205.442 320.521 207.118 326.341 207.118C332.162 207.118 336.751 205.442 340.108 202.09C343.69 198.514 345.481 192.481 345.481 183.989V57.2852C345.481 48.7936 343.69 42.8718 340.108 39.5199C336.751 35.9445 332.162 34.1567 326.341 34.1567C320.521 34.1567 315.82 35.9445 312.238 39.5199C308.88 42.8718 307.202 48.7936 307.202 57.2852V183.989ZM270.265 59.6316C270.265 40.6372 275.078 26.1121 284.704 16.0562C294.33 5.77687 308.209 0.637207 326.341 0.637207C344.474 0.637207 358.353 5.77687 367.979 16.0562C377.604 26.1121 382.417 40.6372 382.417 59.6316V181.643C382.417 200.637 377.604 215.274 367.979 225.553C358.353 235.609 344.474 240.637 326.341 240.637C308.209 240.637 294.33 235.609 284.704 225.553C275.078 215.274 270.265 200.637 270.265 181.643V59.6316Z" fill="#FF5722"/>
<path d="M462.161 194.715L490.367 3.31876H524.281L488.017 237.956H432.948L396.683 3.31876H433.955L462.161 194.715Z" fill="#FF5722"/>
<path d="M531.448 3.31876H645.615V36.8383H607V237.956H570.064V36.8383H531.448V3.31876Z" fill="#FF5722"/>
<path d="M699.459 102.201H750.163V135.721H699.459V204.436H763.258V237.956H662.523V3.31876H763.258V36.8383H699.459V102.201Z" fill="#FF5722"/>
<path d="M819.054 68.0115V237.956H785.811V3.31876H832.149L870.093 143.766V3.31876H903V237.956H865.056L819.054 68.0115Z" fill="#FF5722"/>
<path d="M670.859 314.304C666.556 314.304 662.656 313.379 659.158 311.53C655.7 309.64 652.966 307.046 650.955 303.749C648.985 300.412 648 296.652 648 292.471C648 288.289 648.985 284.549 650.955 281.252C652.966 277.915 655.7 275.322 659.158 273.472C662.656 271.582 666.576 270.637 670.919 270.637C674.578 270.637 677.875 271.281 680.81 272.567C683.786 273.854 686.279 275.704 688.289 278.116L682.017 283.906C679.162 280.609 675.623 278.96 671.402 278.96C668.788 278.96 666.456 279.543 664.405 280.71C662.355 281.835 660.746 283.424 659.58 285.474C658.454 287.525 657.891 289.857 657.891 292.471C657.891 295.084 658.454 297.416 659.58 299.467C660.746 301.518 662.355 303.126 664.405 304.292C666.456 305.418 668.788 305.981 671.402 305.981C675.623 305.981 679.162 304.312 682.017 300.975L688.289 306.765C686.279 309.218 683.786 311.087 680.81 312.374C677.835 313.661 674.518 314.304 670.859 314.304Z" fill="black"/>
<path d="M694.887 271.361H704.658V313.58H694.887V271.361Z" fill="black"/>
<path d="M753.399 271.361V313.58H745.377L724.328 287.947V313.58H714.678V271.361H722.76L743.749 296.994V271.361H753.399Z" fill="black"/>
<path d="M796.077 305.739V313.58H763.388V271.361H795.293V279.202H773.098V288.369H792.7V295.969H773.098V305.739H796.077Z" fill="black"/>
<path d="M842.271 313.58L842.211 288.249L829.786 309.117H825.383L813.019 288.791V313.58H803.852V271.361H811.934L827.736 297.597L843.296 271.361H851.318L851.439 313.58H842.271Z" fill="black"/>
<path d="M889.26 304.533H869.658L865.919 313.58H855.907L874.724 271.361H884.374L903.252 313.58H892.999L889.26 304.533ZM886.184 297.115L879.489 280.951L872.794 297.115H886.184Z" fill="black"/>
</svg>
